<?xml version="1.0" standalone="no"?>
<!DOCTYPE svg PUBLIC "-//W3C//DTD SVG 20010904//EN"
 "http://www.w3.org/TR/2001/REC-SVG-20010904/DTD/svg10.dtd">
<svg version="1.0" xmlns="http://www.w3.org/2000/svg"
 width="3918.000000pt" height="2213.000000pt" viewBox="0 0 3918.000000 2213.000000"
 preserveAspectRatio="xMidYMid meet">

<g transform="translate(0.000000,2213.000000) scale(0.100000,-0.100000)"
fill="#000000" stroke="none">
<path d="M18535 14333 c-704 -58 -1333 -284 -1892 -680 -328 -232 -654 -558
-886 -886 -417 -588 -656 -1289 -684 -2003 l-6 -164 696 0 697 0 0 23 c0 71
-57 207 -116 275 -73 86 -142 119 -327 158 -156 33 -231 64 -285 117 -103 101
-95 262 31 587 104 268 204 461 362 700 218 328 476 603 752 798 61 43 91 56
210 90 233 67 349 86 508 87 123 0 146 -3 187 -22 25 -11 54 -33 63 -47 23
-34 31 -111 15 -131 -31 -38 -240 -83 -505 -109 -82 -9 -173 -22 -201 -31
-109 -32 -181 -116 -171 -201 6 -59 40 -102 105 -132 53 -24 58 -24 212 -17
148 6 161 6 206 -15 70 -30 136 -100 175 -183 61 -132 106 -85 -465 -491
l-499 -356 -131 0 c-253 -1 -359 -32 -462 -134 -88 -89 -135 -222 -104 -297
28 -67 150 -86 345 -54 117 19 265 20 310 1 48 -20 47 -58 -1 -122 -33 -43
-36 -51 -31 -96 21 -172 157 -251 427 -247 240 4 235 5 319 -39 151 -79 284
-100 691 -109 376 -7 627 12 660 52 8 10 -22 63 -120 216 -109 169 -130 208
-130 241 0 42 130 380 158 412 16 18 40 18 712 10 382 -4 713 -7 735 -5 52 2
118 35 150 72 13 17 43 68 66 114 37 75 41 88 35 132 -7 46 -13 54 -135 173
-70 69 -135 137 -144 152 -10 15 -36 38 -60 50 -36 20 -57 23 -147 22 -88 0
-130 -7 -260 -40 -144 -36 -165 -39 -295 -39 -133 0 -143 1 -198 28 -67 33
-107 80 -114 136 -7 54 7 74 115 160 134 108 203 213 243 374 18 70 22 131 29
422 10 394 42 724 90 939 8 36 8 51 0 56 -15 9 -224 38 -360 50 -98 9 -484 11
-575 3z"/>
<path d="M20535 13918 c-18 -58 -102 -240 -143 -311 -26 -43 -74 -109 -108
-147 -79 -88 -122 -151 -146 -213 -26 -68 -17 -104 30 -124 48 -20 117 -11
254 33 287 93 444 62 640 -124 104 -99 331 -352 428 -477 311 -400 659 -1255
638 -1565 -6 -76 -46 -168 -91 -206 -83 -69 -167 14 -221 218 -46 174 -83 224
-300 405 -357 298 -636 375 -808 224 -93 -82 -68 -174 78 -282 30 -22 54 -46
54 -54 0 -43 -191 -111 -343 -122 -103 -7 -131 -22 -129 -72 1 -47 48 -141 94
-188 68 -70 214 -123 339 -123 49 0 69 -25 69 -83 0 -83 -71 -77 852 -77 l821
0 -7 143 c-32 658 -206 1242 -534 1787 -331 551 -836 1040 -1384 1339 -76 42
-76 42 -83 19z"/>
<path d="M17885 10108 c-211 -456 -231 -495 -272 -522 -32 -21 -94 -34 -408
-87 -203 -34 -374 -65 -378 -69 -4 -4 118 -124 272 -268 235 -221 282 -269
297 -307 17 -46 17 -47 -40 -427 -31 -210 -55 -383 -53 -384 2 -2 153 79 335
180 183 101 348 187 367 190 18 4 46 4 62 0 15 -4 180 -83 366 -176 254 -126
337 -164 337 -151 0 9 -32 181 -71 382 -65 337 -70 370 -59 411 11 39 45 78
281 316 148 150 269 276 269 281 0 5 -169 30 -375 56 -407 49 -428 55 -472
120 -12 18 -94 172 -183 342 -89 171 -165 313 -169 318 -4 4 -51 -89 -106
-205z"/>
</g>
</svg>
